Coordinates
nRows=7
nColumns=24

# SIMM Motion File Header:
name Coordinates
datacolumns 24
datarows 7
otherdata 1
range 0.81933000000000000000 0.82533000000000001000
endheader
time	pelvis_tx	pelvis_ty	pelvis_tz	pelvis_tilt	pelvis_list	pelvis_rotation	hip_flexion_r	hip_adduction_r	hip_rotation_r	knee_angle_r	ankle_angle_r	subtalar_angle_r	mtp_angle_r	hip_flexion_l	hip_adduction_l	hip_rotation_l	knee_angle_l	ankle_angle_l	subtalar_angle_l	mtp_angle_l	lumbar_extension	lumbar_bending	lumbar_rotation
      0.81933000000000000000	      1.92340292840142820000	      0.82297584615557873000	     -0.27830958738111239000	     -3.66830441664910540000	     -4.52531960910116030000	      3.15860619732959650000	     24.12196019817545400000	      6.45577758213512440000	      4.25431655999418370000	    -17.22095503214804800000	     -3.48401322291022280000	      0.00000000000005042848	     -0.00000000000026808491	     -2.70208796116673880000	     -6.18055795666896390000	     -5.48343928143829370000	    -38.93167141672844200000	     -8.23651436576873410000	     -0.00000000000004405323	     -0.00000000000041001024	      8.09372901058935310000	      3.61804746155925770000	      8.06573652704974010000
      0.82033000000000000000	      1.92425959974248030000	      0.82305022542651729000	     -0.27816531154502155000	     -3.64859957910495370000	     -4.53720592846493260000	      3.15642840516015650000	     24.02661787835676300000	      6.49339833954672320000	      4.28215020960452010000	    -17.19838170566550800000	     -3.43657560077858280000	      0.00000000000005049382	     -0.00000000000026871552	     -2.59949818116696200000	     -6.24179280427769000000	     -5.45699733290976500000	    -39.21057151340985300000	     -8.39451811449648130000	     -0.00000000000004417817	     -0.00000000000041083208	      8.07030341078217720000	      3.61310705905039110000	      8.09420001296934370000
      0.82133000000000000000	      1.92511494399756660000	      0.82312385468683125000	     -0.27802140411273957000	     -3.62911587760777590000	     -4.54870560519523790000	      3.15432983797915330000	     23.93118308994368300000	      6.53050947416445910000	      4.31013355111931420000	    -17.17497351013108500000	     -3.38993466500209230000	      0.00000000000005056366	     -0.00000000000026934884	     -2.49645632845632640000	     -6.30251319032594020000	     -5.43055410625183210000	    -39.48908600835495300000	     -8.55059084201644560000	     -0.00000000000004430396	     -0.00000000000041165331	      8.04703173940724530000	      3.60768321016937770000	      8.12253429501059370000
      0.82233000000000001000	      1.92596916110383880000	      0.82319688748794151000	     -0.27787779266232465000	     -3.60979370810170600000	     -4.55988920572703190000	      3.15227129111603510000	     23.83567172069118100000	      6.56721120099659480000	      4.33825416521243580000	    -17.15092717272408200000	     -3.34391047056102940000	      0.00000000000005063417	     -0.00000000000026997790	     -2.39308485101955130000	     -6.36280779284274000000	     -5.40417207500964290000	    -39.76721154970965700000	     -8.70510424937849870000	     -0.00000000000004442748	     -0.00000000000041247570	      8.02386038348679880000	      3.60187571731823080000	      8.15078101496901300000
      0.82333000000000001000	      1.92681999676366810000	      0.82326813091144058000	     -0.27773506915751101000	     -3.59095613456896020000	     -4.57012457766329130000	      3.15033280520657040000	     23.73993060892041000000	      6.60268470447193320000	      4.36678659704053640000	    -17.12496640969933600000	     -3.29973650012624420000	      0.00000000000005070672	     -0.00000000000027059417	     -2.28872449940435980000	     -6.42182504476519170000	     -5.37797363001468300000	    -40.04417023029316200000	     -8.85493969626683250000	     -0.00000000000004454414	     -0.00000000000041330153	      8.00098997392979960000	      3.59491729255668700000	      8.17876504867893670000
      0.82433000000000001000	      1.92766857654479650000	      0.82333826739869487000	     -0.27759289493082590000	     -3.57238645003943040000	     -4.57976399663299460000	      3.14841982203558190000	     23.64403998420456400000	      6.63739881110277170000	      4.39558840078411880000	    -17.09787640066204500000	     -3.25666558920347130000	      0.00000000000005077756	     -0.00000000000027121032	     -2.18380443670460790000	     -6.48003162215071080000	     -5.35202687058076700000	    -40.32026061594208200000	     -9.00185312249669240000	     -0.00000000000004465426	     -0.00000000000041414431	      7.97825673408336920000	      3.58725755432518100000	      8.20661845910471040000
      0.82533000000000001000	      1.92851490044722400000	      0.82340729694970416000	     -0.27745126998226932000	     -3.55408465451311660000	     -4.58880746263614280000	      3.14653234160306990000	     23.54799984654363600000	      6.67135352088910860000	      4.42465957644318400000	    -17.06965714561220100000	     -3.21469773779271240000	      0.00000000000005084670	     -0.00000000000027182635	     -2.07832466292029490000	     -6.53742752499929570000	     -5.32633179670789580000	    -40.59548270665641900000	     -9.14584452806807140000	     -0.00000000000004475783	     -0.00000000000041500404	      7.95566066394750580000	      3.57889650262371180000	      8.23434124624633590000
